<svg width="30" height="30" viewBox="0 0 30 30" fill="none" xmlns="http://www.w3.org/2000/svg">
<g clip-path="url(#clip0)">
<path d="M15.8377 29.808C16.0967 30.0582 16.5094 30.0509 16.7596 29.792C17.0036 29.5393 17.0036 29.1387 16.7596 28.8861L2.8773 15.0025L16.7609 1.12013C17.0199 0.869947 17.0271 0.457232 16.7769 0.198186C16.5267 -0.0607993 16.114 -0.0679505 15.855 0.182172C15.8495 0.187429 15.8442 0.192746 15.839 0.198186L1.49503 14.5421C1.2405 14.7967 1.2405 15.2094 1.49503 15.4641L15.8377 29.808Z" fill="#009688"/>
<path d="M13.2297 15.464L27.5737 29.808C27.8327 30.0582 28.2454 30.0509 28.4956 29.792C28.7396 29.5393 28.7396 29.1387 28.4956 28.886L14.6133 15.0024L28.4969 1.12013C28.7559 0.869949 28.763 0.457234 28.5129 0.198188C28.2627 -0.0607975 27.85 -0.0679486 27.591 0.182174C27.5855 0.18743 27.5802 0.192748 27.575 0.198188L13.231 14.5421C12.9762 14.7964 12.9756 15.2091 13.2297 15.464Z" fill="#009688"/>
<path d="M16.2993 0.00640361C16.6594 0.0057312 16.9518 0.297172 16.9525 0.657258C16.9528 0.830852 16.8839 0.997418 16.7609 1.12003L2.87733 15.0024L16.7609 28.8846C17.0111 29.1436 17.0039 29.5564 16.7449 29.8066C16.4922 30.0506 16.0917 30.0506 15.8391 29.8066L1.49512 15.4626C1.24059 15.2081 1.24059 14.7953 1.49512 14.5407L15.839 0.196806C15.9612 0.0748627 16.1267 0.00640362 16.2993 0.00640361Z" fill="black"/>
<path d="M28.0352 0.00735327C28.3953 0.00668087 28.6877 0.298122 28.6884 0.658208C28.6887 0.831802 28.6197 0.998367 28.4968 1.12098L14.6132 15.0033L28.4968 28.8856C28.7517 29.1405 28.7517 29.5539 28.4968 29.8088C28.2418 30.0638 27.8285 30.0638 27.5736 29.8088L13.2296 15.4649C12.9751 15.2103 12.9751 14.7976 13.2296 14.5429L27.5736 0.19904C27.6959 0.0763622 27.8619 0.00735329 28.0352 0.00735327Z" fill="black"/>
</g>
<defs>
<clipPath id="clip0">
<rect width="30" height="30" fill="white" transform="translate(30 30) rotate(180)"/>
</clipPath>
</defs>
</svg>
